# xmcd
#
# Track frame offsets:
# 183
# 19103
# 37505
# 57933
#
# Disc length: 1129 seconds
#
#
# Revision: 0
# Processed by: cddbd v1.5.1PL0 Copyright (c) Steve Scherf et al.
# Submitted via: FreeRIP 2.90 
#
DISCID=22046704
DTITLE=Trance - Maxi
DYEAR=1989
DGENRE=Rock
TTITLE0=When a man loves a woman
TTITLE1=High Life
TTITLE2=Time Maschine
TTITLE3=Power of the heart
EXTD=
EXTT0=
EXTT1=
EXTT2=
EXTT3=
PLAYORDER=
